<?xml version="1.0" standalone="no"?>
<!DOCTYPE svg PUBLIC "-//W3C//DTD SVG 20010904//EN"
 "http://www.w3.org/TR/2001/REC-SVG-20010904/DTD/svg10.dtd">
<svg version="1.0" xmlns="http://www.w3.org/2000/svg"
 width="1600.000000pt" height="1600.000000pt" viewBox="0 0 1600.000000 1600.000000"
 preserveAspectRatio="xMidYMid meet">
<metadata>
Created by potrace 1.14, written by Peter Selinger 2001-2017
</metadata>
<g transform="translate(0.000000,1600.000000) scale(0.100000,-0.100000)"
fill="#000000" stroke="none">
<path d="M181 11343 c-75 -255 -181 -635 -181 -648 0 -13 12 -15 78 -13 l77 3
36 125 36 125 154 5 c147 5 156 7 208 35 69 38 93 76 126 197 29 109 25 156
-17 195 -45 41 -61 43 -282 43 l-215 0 -20 -67z m384 -86 c4 -13 -4 -54 -17
-92 -33 -97 -51 -108 -185 -113 -87 -4 -105 -2 -101 9 3 8 18 60 33 117 l28
102 119 0 c115 0 118 -1 123 -23z"/>
<path d="M1105 11398 c-46 -16 -105 -59 -138 -100 -21 -26 -42 -80 -78 -205
-52 -181 -57 -223 -34 -280 21 -50 41 -70 100 -102 48 -25 57 -26 200 -26 162
0 202 10 282 71 52 40 78 97 134 292 47 167 51 188 40 223 -15 51 -52 93 -104
118 -39 19 -61 21 -208 20 -90 0 -177 -5 -194 -11z m348 -150 l21 -28 -43
-152 c-69 -244 -78 -253 -274 -253 -123 0 -130 1 -148 24 -27 33 -24 68 20
222 61 215 68 220 270 216 133 -2 134 -2 154 -29z"/>
<path d="M1802 11053 c-57 -197 -103 -361 -102 -365 0 -5 108 -8 241 -8 l240
0 14 34 c8 19 16 49 17 66 l3 32 -157 -2 c-129 -1 -158 2 -158 13 0 8 36 138
80 290 44 152 80 281 80 287 0 6 -31 10 -78 10 l-77 0 -103 -357z"/>
<path d="M2402 11053 c-56 -197 -102 -361 -102 -365 0 -5 34 -8 75 -8 69 0 76
2 85 23 13 29 200 680 200 695 0 8 -25 12 -78 12 l-78 0 -102 -357z"/>
<path d="M2970 11394 c-64 -28 -99 -72 -125 -159 -58 -190 -22 -235 189 -235
105 0 116 -2 126 -20 14 -25 -2 -87 -30 -123 -30 -38 -77 -47 -251 -47 l-156
0 -17 -58 c-9 -32 -16 -62 -16 -66 0 -5 100 -6 223 -4 l222 3 55 30 c65 36 93
75 122 169 37 118 25 181 -39 223 -21 14 -56 19 -153 23 l-125 5 1 43 c0 26 9
53 21 70 l20 27 179 5 178 5 13 44 c7 24 15 52 18 62 6 18 -3 19 -207 19 -167
-1 -220 -4 -248 -16z"/>
<path d="M3686 11393 c-105 -364 -196 -686 -196 -698 0 -13 12 -15 73 -13 l72
3 22 70 c12 39 31 103 43 143 l21 72 174 0 c96 0 175 -4 175 -8 0 -4 -16 -62
-35 -129 -19 -67 -35 -129 -35 -137 0 -13 14 -16 75 -16 l74 0 10 38 c6 20 53
184 104 365 l94 327 -78 0 -78 0 -10 -37 c-6 -21 -26 -90 -44 -153 l-33 -115
-177 -3 c-97 -1 -177 0 -177 2 0 3 18 67 40 142 22 75 40 143 40 151 0 10 -19
13 -74 13 -63 0 -75 -3 -80 -17z"/>
<path d="M4929 11054 c-134 -196 -244 -359 -244 -362 0 -4 36 -8 81 -10 l81
-3 45 73 44 73 162 3 162 2 0 -59 c0 -90 1 -91 85 -91 41 0 76 3 78 8 3 5 -66
692 -72 720 -1 1 -41 2 -89 2 l-89 0 -244 -356z m320 4 l1 -108 -116 0 -116 0
23 39 c13 21 62 99 109 173 l85 135 6 -66 c4 -36 7 -114 8 -173z"/>
<path d="M5800 11407 c0 -1 -45 -160 -100 -352 -55 -192 -100 -356 -100 -363
0 -10 19 -12 78 -10 l77 3 97 335 c54 184 100 347 104 363 l6 27 -81 0 c-45 0
-81 -1 -81 -3z"/>
<path d="M6209 11408 c0 -2 -47 -163 -104 -358 -56 -195 -100 -359 -95 -363 4
-4 40 -7 80 -5 l73 3 37 130 37 130 118 3 c78 2 122 -1 131 -9 11 -9 13 -34 8
-123 -8 -134 -5 -138 85 -134 l61 3 4 122 c3 104 1 126 -14 151 -10 17 -28 33
-39 37 -30 9 -26 19 13 33 58 21 92 62 115 136 26 85 27 142 1 183 -35 59 -55
63 -295 63 -118 0 -215 -1 -216 -2z m361 -143 c19 -22 -11 -123 -45 -152 -24
-21 -36 -23 -136 -23 -100 0 -110 2 -105 18 3 9 15 52 27 95 l22 77 112 0 c88
0 115 -3 125 -15z"/>
<path d="M6921 11055 c-55 -195 -101 -359 -101 -365 0 -6 83 -10 241 -10 l240
0 13 33 c8 17 17 47 21 65 l7 32 -161 0 c-105 0 -161 4 -161 10 0 6 36 136 80
290 44 154 80 284 80 290 0 6 -31 10 -79 10 l-78 0 -102 -355z"/>
<path d="M7522 11056 c-56 -195 -102 -359 -102 -365 0 -7 28 -11 75 -11 61 0
76 3 83 18 11 19 202 686 202 702 0 6 -32 10 -78 10 l-78 0 -102 -354z"/>
<path d="M7942 11052 c-56 -197 -102 -361 -102 -365 0 -4 29 -7 65 -7 51 0 66
4 73 18 5 9 42 134 82 277 40 143 76 263 79 267 4 4 35 -99 70 -230 36 -130
70 -258 78 -284 l14 -48 99 0 99 0 20 68 c11 37 56 195 101 352 44 157 83 291
85 298 4 10 -12 12 -67 10 l-71 -3 -78 -275 c-43 -151 -80 -278 -82 -283 -1
-5 -38 120 -82 277 l-80 286 -100 0 -101 0 -102 -358z"/>
<path d="M8965 11398 c-19 -51 -202 -705 -198 -710 2 -5 119 -8 258 -8 l254 0
19 63 18 62 -184 3 -184 2 7 28 c3 15 15 57 26 95 l20 67 154 0 154 0 15 54
c9 30 16 59 16 65 0 7 -48 11 -150 11 -82 0 -150 3 -150 6 0 4 9 38 20 75 l21
69 186 2 187 3 13 44 c7 24 15 52 18 62 6 18 -5 19 -255 19 -199 0 -262 -3
-265 -12z"/>
<path d="M9752 11388 c-60 -29 -88 -68 -117 -162 -29 -94 -31 -126 -10 -165
24 -47 68 -61 197 -61 121 0 138 -6 138 -47 0 -38 -30 -101 -58 -120 -23 -15
-52 -18 -206 -20 -99 -2 -180 -4 -181 -5 -1 -2 -9 -29 -18 -61 -14 -50 -14
-59 -1 -64 8 -3 108 -4 222 -1 191 3 211 5 254 26 69 34 103 79 133 175 29 97
31 127 9 173 -26 56 -79 74 -212 74 -127 0 -130 2 -112 69 21 79 27 81 221 81
l170 0 13 33 c8 17 17 47 21 65 l7 32 -214 0 c-194 -1 -217 -3 -256 -22z"/>
<path d="M6515 10010 c-546 -47 -1053 -247 -1480 -584 -121 -96 -336 -309
-429 -426 -368 -463 -570 -1012 -592 -1605 -13 -353 52 -664 201 -962 l62
-123 -909 0 c-499 0 -908 4 -908 8 0 4 36 134 81 288 250 867 959 3347 959
3355 0 5 -396 9 -988 9 l-988 0 -105 -367 c-1090 -3801 -1421 -4964 -1417
-4968 11 -11 6613 -50 7303 -43 478 5 528 9 772 69 992 242 1769 1021 2002
2009 49 206 63 319 68 557 4 178 2 246 -12 340 -32 223 -99 434 -197 626 -24
45 -44 85 -46 90 -2 4 406 7 907 7 501 0 911 -4 911 -8 0 -5 -83 -299 -185
-653 -325 -1129 -847 -2953 -852 -2977 l-5 -22 988 0 989 0 317 1103 c174 606
410 1429 525 1829 l208 728 912 0 c859 0 913 1 921 18 20 40 475 1653 468
1660 -4 4 -686 10 -1514 13 -4467 20 -6529 29 -7162 33 -388 2 -750 1 -805 -4z
m824 -1619 c46 -12 87 -24 92 -27 6 -3 -596 -1229 -615 -1251 -7 -8 -801 -122
-807 -116 -5 5 -15 40 -23 78 -84 408 69 835 392 1094 147 118 336 204 521
237 109 19 332 11 440 -15z m359 -157 c169 -110 336 -309 412 -490 57 -138 82
-253 87 -409 4 -115 1 -157 -15 -239 -12 -54 -23 -100 -26 -103 -12 -12 -71
12 -101 43 l-34 34 -136 0 c-74 0 -135 -4 -135 -8 0 -20 28 -32 72 -32 37 0
50 -4 58 -20 11 -20 8 -20 -229 -20 l-240 0 -12 42 c-14 54 -72 112 -128 129
-36 11 -60 10 -147 -2 -58 -9 -103 -12 -102 -8 2 3 127 212 278 464 271 452
274 458 278 520 5 76 -10 125 -51 171 l-30 35 57 -25 c31 -14 96 -51 144 -82z
m-560 -1626 c191 -188 348 -345 350 -348 3 -8 1 -9 -143 -47 -87 -23 -120 -26
-255 -27 -164 0 -221 8 -355 51 -232 75 -446 237 -580 437 -50 76 -112 198
-129 254 l-7 22 386 0 387 0 346 -342z m1002 331 c0 -26 -72 -175 -123 -251
-67 -102 -121 -163 -213 -242 -70 -60 -236 -166 -260 -166 -8 0 -5 12 8 38 27
52 22 162 -10 214 -14 23 -109 103 -254 215 -128 98 -239 183 -247 190 -13 10
101 12 542 13 398 0 557 -3 557 -11z"/>
</g>
</svg>
